<?xml version="1.0" encoding="utf-8"?>
<!-- Generator: Adobe Illustrator 23.0.2, SVG Export Plug-In . SVG Version: 6.00 Build 0)  -->
<svg version="1.1" id="Laag_1" xmlns="http://www.w3.org/2000/svg" xmlns:xlink="http://www.w3.org/1999/xlink" x="0px" y="0px"
	 viewBox="0 0 993.39 200.68" style="enable-background:new 0 0 993.39 200.68;" xml:space="preserve">
<style type="text/css">
	.st0{fill:#522951;stroke:#522951;stroke-width:9;stroke-miterlimit:10;}
	.st1{fill:#522951;}
	.st2{fill:#D169CF;}
	.st3{fill:#9E4F9D;}
</style>
<g>
	<g>
		<path class="st0" d="M103.95,151.15l0.31-143.78c17.41-1.26,31.46-1.26,42.16,0c10.7,1.26,19.73,4.18,27.11,8.76
			c7.38,4.58,11.59,11.94,12.64,22.08c0.56,10.56-0.68,18.09-3.72,22.6c-3.04,4.51-6.9,8.06-11.59,10.64
			c-4.68,2.59-11.01,4-18.98,4.25c-7.97,0.24-13.11,0.3-15.42,0.16c0,0.14,3.04,0.4,9.12,0.79c6.08,0.38,13.74,1.77,22.97,4.14
			c9.23,2.38,16.5,6.78,21.81,13.21c6.99,11.12,9.37,23.46,7.13,37.02c-2.24,13.57-20.66,20.35-55.27,20.35
			C122.65,151.15,109.89,151.08,103.95,151.15z M115.7,81.82v56c12.51,1.05,22.65,1.47,30.41,1.26c7.76-0.21,15.05-1.35,21.87-3.41
			c6.82-2.06,10.76-6.61,11.85-13.63c1.08-7.03,0.94-12.55-0.42-16.57c-1.36-4.02-3.9-7.72-7.6-11.12
			c-3.71-3.39-9.44-6.34-17.2-8.86C143.56,82.42,130.59,81.2,115.7,81.82z M115.8,68.93c3.36,0.14,6.9,0.24,10.65,0.31
			c3.74,0.07,9.45,0.09,17.15,0.05c7.69-0.03,13.41-1.01,17.15-2.94c3.74-1.92,7.3-4.88,10.7-8.86c3.39-3.99,4.4-9.54,3.04-16.68
			s-5.33-11.94-11.9-14.42c-6.57-2.48-13.06-4.11-19.45-4.88c-6.4-0.77-15.47-0.7-27.22,0.21L115.8,68.93z"/>
		<path class="st1" d="M224.72,52.56c4.65,0,7.43-0.21,8.34-0.63c-0.7,12.73-1.1,23.34-1.21,31.83c-0.11,8.49,0.05,16.97,0.47,25.43
			c0.42,8.46,1.36,14.79,2.83,18.98c1.47,4.27,4.79,6.7,9.96,7.29c5.17,0.59,10.59,0.77,16.26,0.52c5.66-0.24,12.15-2.08,19.45-5.51
			c7.3-3.43,11.13-9.14,11.48-17.15c0.35-8.01,0.42-16.66,0.21-25.96c-0.21-9.3-0.56-21.43-1.05-36.39
			c1.61,0.84,5.24,1.26,10.91,1.26c5.66,0,9.09-0.84,10.28-2.52l3.36,100.79c-3.15-0.21-5.66-0.42-7.55-0.63
			c-1.89-0.21-4.34-0.42-7.34-0.63c-0.7-13.49-0.98-20.24-0.84-20.24c-4.4,11.68-10.43,18.18-18.09,19.51
			c-7.66,1.33-17.3,2.1-28.94,2.31c-11.64,0.21-19.94-1.22-24.91-4.3c-5.59-2.52-9.54-8.65-11.85-18.4
			c-2.31-9.75-3.72-20.29-4.25-31.62c-0.52-11.33-0.33-26.18,0.58-44.57C216.1,52.35,220.06,52.56,224.72,52.56z"/>
		<path class="st1" d="M347.26,49.73c0,9.37,0,15.49,0,18.35c5.17-3.36,10.84-6.22,16.99-8.6c6.15-2.38,12.17-3.78,18.04-4.2
			c5.87-0.42,11.36-0.1,16.47,0.94c5.1,1.05,9.51,2.41,13.21,4.09c3.63,1.75,6.45,7.41,8.44,16.99c1.99,9.58,3.46,19.77,4.4,30.57
			c0.94,10.8,1.84,25.22,2.67,43.26l-20.87,0.31c0-19.65-1.22-40.31-3.67-61.98c-1.26-10.77-4.89-17.09-10.91-18.98
			c-6.01-1.89-12.38-1.8-19.09,0.26c-6.71,2.06-15.38,6.55-26.01,13.48l-1.89,66.91l-7.13,0.31h-14.05
			c1.33-5.94,2.03-11.47,2.1-16.57c0.14-10.28,0.05-21.99-0.26-35.13c-0.32-13.14-0.4-29.71-0.26-49.71
			C331.6,51.1,338.87,50.99,347.26,49.73z"/>
		<path class="st1" d="M511.39,48.26l25.07-0.53c0.91,19.79,1.22,37.02,0.94,51.7s-0.59,28.6-0.94,41.74
			c-0.35,13.14-2.24,25.87-5.66,38.17c-4.05,10.42-12.25,16.59-24.59,18.51c-12.34,1.92-24.58,2.18-36.71,0.79
			c-12.13-1.4-23.65-6.08-34.56-14.05c7.9-10.77,12.8-17.55,14.68-20.34c5.59,8.53,16.43,13.74,32.51,15.63
			c16.08,1.89,26.39-1.57,30.94-10.38c4.54-8.81,6.82-22.65,6.82-41.53c-8.88,13.29-24.63,20.08-47.25,20.4
			c-22.62,0.31-34.24-14.8-34.87-45.36c0.7-21.25,5.59-35.59,14.68-43c9.09-7.41,18.21-10.91,27.37-10.49
			c9.16,0.42,20.31,4.41,33.46,11.96C512.3,57.7,511.67,53.3,511.39,48.26z M462.83,75.64c-9.44,14.61-10.7,29.86-3.78,45.73
			c5.03,10.84,15.42,13.84,31.15,9.02c12.72-3.36,22.48-11.08,29.26-23.18l-0.94-26.85C495.94,62.25,477.37,60.68,462.83,75.64z"/>
		<path class="st1" d="M549.77,60.95c1.89-2.45,10.15-5.96,24.8-10.54c14.65-4.58,27.63-3.18,38.96,4.2
			c11.33,7.38,17.65,20.68,18.98,39.9c0.28,23.28,1.75,42.47,4.41,57.58c-3.22,0.07-8.01-0.03-14.37-0.31
			c0.42,1.12-0.49-3.36-2.73-13.42c-15.59,7.62-27.48,11.94-35.66,12.95c-8.18,1.01-16.34,0.7-24.49-0.94
			c-8.15-1.64-12.29-8.86-12.43-21.66c3.29-14.33,9.49-24.56,18.62-30.68c9.12-6.12,19.26-9.16,30.41-9.12
			c11.15,0.04,18.26,0.79,21.34,2.26c-1.61-12.24-6.22-20.71-13.84-25.43c-7.62-4.72-16.82-4.68-27.58,0.1
			c-10.77,4.79-19.26,9.28-25.49,13.48L549.77,60.95z M618.89,105.42c-5.45-0.91-13.15-1.54-23.07-1.89
			c-9.93-0.35-18.49,3.55-25.69,11.69c-7.2,8.15-8.57,15.01-4.09,20.61c4.47,5.59,22.48,1.15,54.01-13.32
			C619.48,118.88,619.1,113.18,618.89,105.42z"/>
		<path class="st2" d="M731,1c0,10.07,0.09,43.69,0.26,61.69c0.17,18-0.3,33.18-1.42,45.52c-1.12,12.34-4.65,22.15-10.59,29.42
			c-5.94,7.27-15.1,11.33-27.48,12.17c-11.61,0.56-20.57-1-26.9-4.67c-6.33-3.67-10.84-7.95-13.53-12.85
			c-2.69-4.89-3.79-11.78-3.3-20.66c2.1,1.26,4.28,1.98,6.55,2.15c2.27,0.18,4.63,0.16,7.08-0.05c0.56,18.88,9.33,27.11,26.32,24.7
			c16.99-2.41,25.96-15.71,26.9-39.9c0.94-24.19,0.31-42.89-1.89-56.11c-2.2-13.21-4.49-39.93-6.87-40.98L731,1z"/>
		<path class="st2" d="M817.52,137.72c-9.37,8.39-19.16,12.52-29.36,12.38c-12.86-0.21-23.56-4.7-32.09-13.48
			c-8.53-8.77-13.07-25.85-13.63-51.23c0.14-14.82,2.13-26.65,5.98-35.5c3.84-8.84,8.74-15.61,14.68-20.29
			c5.94-4.68,12.22-7.59,18.82-8.71c6.61-1.12,13.41-0.8,20.4,0.95c7.76,2.59,14.11,7.95,19.03,16.1
			c4.93,8.15,7.66,14.54,8.18,19.19c0.52,4.65,1.31,14.53,2.36,29.63C831.68,112.34,826.89,129.33,817.52,137.72z M812.54,45.12
			c-0.94-2.73-2.85-5.75-5.72-9.07c-2.87-3.32-6.33-5.72-10.38-7.18c-3.92-0.35-7.38-0.35-10.38,0c-3.01,0.35-6.97,2.54-11.9,6.55
			c-4.93,4.02-8.79,10.61-11.59,19.77c-2.8,9.16-3.99,20.85-3.57,35.08c0.42,14.23,2.52,26.45,6.29,36.65s11.54,15.26,23.28,15.15
			c11.75-0.1,19.44-4.91,23.07-14.42c3.63-9.51,5.68-21.39,6.14-35.66c0.45-14.26-0.33-26.5-2.36-36.71
			C814.44,51.24,813.48,47.85,812.54,45.12z"/>
		<path class="st2" d="M865.03,26.24c-2.03,0.28-3.15,1.47-3.36,3.57c4.26,24.05,7.17,40.81,8.7,50.29
			c1.54,9.48,4.44,24.84,8.71,46.09c13.14-36.92,19.02-52.92,17.62-48.03c14.47,36.36,22.06,54.47,22.76,54.33
			c3.64-22.23,7.46-45.15,11.49-68.75c4.02-23.6,6.06-35.61,6.14-36.03c0.28,0.14-0.7-0.35-2.94-1.47
			c13.28-0.28,23.35-0.38,30.2-0.31c-2.17,1.4-3.39,2.06-3.67,1.99c-5.59,25.03-11.38,51.2-17.36,78.5
			c-5.98,27.3-9.07,41.2-9.28,41.69c-0.56,1.33-0.04,2.41,1.57,3.25c-16.57,0.07-24.65,0-24.23-0.21c1.12-0.84,1.78-2.13,1.99-3.88
			l-19.09-48.35c-12.1,34.47-16.75,51.98-13.95,52.54c-4.47,0-9.68,0-15.63,0c0.56-1.47,1.05-2.97,1.47-4.51
			c-1.89-8.04-5.98-30.41-12.27-67.12c-6.29-36.71-10.73-54.57-13.32-53.59C852.62,26.1,860.76,26.1,865.03,26.24z"/>
	</g>
	<g>
		<path class="st3" d="M718.48,196.44c-0.05,0-0.1,0-0.14,0c-7.52-0.21-15.41-0.69-23.45-1.43c-2.87-0.26-4.98-2.8-4.71-5.67
			c0.26-2.87,2.81-4.99,5.67-4.71c7.82,0.72,15.49,1.19,22.78,1.39c2.88,0.08,5.15,2.48,5.07,5.35
			C723.61,194.2,721.3,196.44,718.48,196.44z M741.64,196.21c-2.76,0-5.07-2.17-5.2-4.96c-0.14-2.88,2.08-5.32,4.95-5.46
			c7.62-0.38,15.24-1.07,22.62-2.07c2.86-0.39,5.48,1.62,5.87,4.47c0.38,2.85-1.62,5.48-4.47,5.86c-7.68,1.04-15.59,1.76-23.51,2.15
			C741.81,196.21,741.72,196.21,741.64,196.21z M333.1,194.43c-1.75,0-3.48-0.02-5.21-0.05c-2.88-0.05-5.17-2.43-5.12-5.31
			c0.05-2.88,2.47-5.17,5.31-5.12c1.66,0.03,3.34,0.04,5.02,0.04c5.6,0,11.58-0.16,17.78-0.49c2.86-0.16,5.33,2.06,5.48,4.93
			c0.15,2.88-2.06,5.33-4.94,5.48C345.05,194.26,338.89,194.43,333.1,194.43z M304.89,192.84c-0.21,0-0.43-0.01-0.64-0.04
			c-8.45-1.04-16.36-2.61-23.51-4.68c-2.77-0.8-4.36-3.69-3.56-6.45c0.8-2.77,3.69-4.36,6.45-3.56c6.62,1.91,13.99,3.37,21.89,4.35
			c2.86,0.35,4.89,2.95,4.54,5.81C309.73,190.91,307.48,192.84,304.89,192.84z M672.36,192.32c-0.24,0-0.49-0.02-0.74-0.05
			c-7.18-1.02-14.72-2.24-23.05-3.71c-2.84-0.5-4.73-3.21-4.22-6.04c0.5-2.84,3.21-4.73,6.04-4.22c8.22,1.46,15.64,2.65,22.7,3.66
			c2.85,0.41,4.83,3.05,4.43,5.9C677.15,190.44,674.92,192.32,672.36,192.32z M374.26,192.15c-2.65,0-4.91-2.01-5.18-4.7
			c-0.29-2.87,1.81-5.42,4.67-5.7c7.1-0.71,14.57-1.57,22.85-2.65c2.86-0.36,5.47,1.64,5.84,4.5c0.37,2.86-1.64,5.47-4.5,5.84
			c-8.38,1.09-15.96,1.97-23.17,2.69C374.61,192.14,374.43,192.15,374.26,192.15z M787.49,189.99c-2.38,0-4.53-1.64-5.08-4.06
			c-0.64-2.81,1.12-5.6,3.93-6.24c5.39-1.22,10.83-2.64,16.17-4.22c1.87-0.55,3.8-1.14,5.77-1.77c2.74-0.87,5.67,0.66,6.54,3.4
			s-0.66,5.67-3.41,6.54c-2.03,0.64-4.02,1.25-5.95,1.82c-5.55,1.64-11.21,3.12-16.82,4.39
			C788.26,189.95,787.87,189.99,787.49,189.99z M420.22,186.25c-2.54,0-4.77-1.86-5.15-4.45c-0.42-2.85,1.54-5.5,4.39-5.92
			c7.65-1.14,15.29-2.32,22.89-3.5c2.84-0.44,5.51,1.51,5.95,4.35c0.44,2.84-1.51,5.51-4.35,5.95c-7.62,1.18-15.29,2.37-22.96,3.51
			C420.73,186.23,420.48,186.25,420.22,186.25z M626.71,184.35c-0.33,0-0.67-0.03-1.01-0.1c-5.55-1.09-11.11-2.2-16.7-3.32
			l-6.04-1.21c-2.82-0.56-4.65-3.31-4.09-6.13c0.56-2.82,3.32-4.65,6.13-4.09l6.05,1.21c5.58,1.12,11.13,2.23,16.66,3.32
			c2.83,0.55,4.67,3.29,4.11,6.12C631.33,182.62,629.15,184.35,626.71,184.35z M260.62,179.93c-0.62,0-1.25-0.11-1.86-0.35
			c-6.79-2.6-13.86-5.35-21.62-8.4c-2.68-1.05-4-4.08-2.95-6.76c1.05-2.68,4.08-4,6.76-2.95c7.73,3.04,14.78,5.77,21.54,8.36
			c2.69,1.03,4.03,4.05,3,6.73C264.69,178.65,262.72,179.93,260.62,179.93z M466.06,179.23c-2.54,0-4.76-1.85-5.15-4.44
			c-0.43-2.85,1.53-5.5,4.38-5.93c8.9-1.34,16.22-2.38,23.04-3.28c2.85-0.38,5.47,1.63,5.85,4.49c0.38,2.85-1.63,5.47-4.49,5.85
			c-6.75,0.89-14.02,1.93-22.86,3.25C466.58,179.21,466.32,179.23,466.06,179.23z M831.83,176.54c-2.16,0-4.19-1.36-4.93-3.52
			c-0.94-2.72,0.51-5.69,3.23-6.63l2.17-0.75c6.4-2.2,13.02-4.48,19.84-6.74c2.73-0.91,5.68,0.57,6.59,3.31
			c0.91,2.73-0.58,5.68-3.31,6.59c-6.76,2.24-13.35,4.51-19.72,6.7l-2.17,0.75C832.97,176.45,832.39,176.54,831.83,176.54z
			 M581.24,175.37c-0.32,0-0.65-0.03-0.97-0.09c-2.91-0.55-5.84-1.09-8.77-1.62c-4.16-0.75-8.72-1.31-13.55-1.66
			c-2.87-0.21-5.03-2.7-4.82-5.58c0.21-2.87,2.71-5.03,5.58-4.82c5.21,0.38,10.14,0.98,14.66,1.8c2.96,0.54,5.91,1.08,8.85,1.64
			c2.83,0.53,4.69,3.26,4.16,6.09C585.88,173.62,583.7,175.37,581.24,175.37z M512.03,173.29c-2.65,0-4.92-2.02-5.18-4.71
			c-0.28-2.87,1.82-5.41,4.69-5.69c8.57-0.83,16.24-1.35,23.44-1.61c2.84-0.12,5.29,2.15,5.39,5.03c0.1,2.88-2.15,5.29-5.03,5.39
			c-6.98,0.25-14.44,0.76-22.8,1.57C512.37,173.28,512.2,173.29,512.03,173.29z M217.51,163.05c-0.64,0-1.29-0.12-1.92-0.37
			c-8.22-3.25-15.03-5.93-21.5-8.4c-2.69-1.03-4.03-4.05-3-6.73c1.03-2.69,4.05-4.03,6.73-3c6.51,2.5,13.35,5.18,21.6,8.45
			c2.68,1.06,3.99,4.09,2.93,6.77C221.55,161.8,219.59,163.05,217.51,163.05z M875.89,162.14c-2.26,0-4.34-1.48-5-3.76
			c-0.8-2.77,0.78-5.66,3.55-6.46c8.19-2.38,15.63-4.31,22.76-5.91c2.81-0.63,5.6,1.14,6.22,3.95c0.63,2.81-1.14,5.6-3.95,6.22
			c-6.91,1.54-14.15,3.42-22.12,5.74C876.87,162.07,876.38,162.14,875.89,162.14z M921.15,152.31c-2.6,0-4.85-1.94-5.17-4.59
			c-0.35-2.86,1.69-5.46,4.55-5.8c6.86-0.83,13.45-1.25,19.59-1.26c1.45,0,2.9,0.02,4.33,0.07c2.88,0.09,5.13,2.5,5.04,5.38
			c-0.1,2.88-2.56,5.14-5.38,5.04c-1.32-0.04-2.65-0.06-3.99-0.06c-5.72,0-11.89,0.4-18.34,1.18
			C921.57,152.3,921.36,152.31,921.15,152.31z M174.25,146.64c-0.57,0-1.14-0.09-1.71-0.29c-7.6-2.64-14.72-4.92-21.77-6.98
			c-2.76-0.8-4.35-3.7-3.55-6.46c0.8-2.76,3.7-4.35,6.46-3.55c7.23,2.1,14.52,4.44,22.28,7.14c2.72,0.95,4.16,3.92,3.21,6.64
			C178.43,145.29,176.41,146.64,174.25,146.64z M129.85,133.74c-0.39,0-0.79-0.04-1.18-0.14c-7.16-1.66-14.49-3.17-22.42-4.63
			c-2.83-0.52-4.71-3.24-4.19-6.07c0.52-2.83,3.23-4.71,6.07-4.19c8.09,1.48,15.57,3.03,22.89,4.72c2.8,0.65,4.55,3.45,3.9,6.26
			C134.36,132.11,132.22,133.74,129.85,133.74z M84.36,125.3c-0.26,0-0.51-0.02-0.77-0.06c-7.08-1.05-14.75-2.1-22.81-3.11
			c-2.86-0.36-4.88-2.96-4.53-5.82c0.36-2.86,2.97-4.88,5.82-4.53c8.14,1.02,15.9,2.08,23.06,3.14c2.85,0.42,4.81,3.08,4.39,5.92
			C89.13,123.44,86.9,125.3,84.36,125.3z M38.61,118.29c-0.42,0-0.84-0.05-1.26-0.16c-9.86-2.45-17.62-5.68-23.08-9.61
			c-2.34-1.68-2.87-4.94-1.19-7.28c1.68-2.34,4.94-2.87,7.28-1.19c4.38,3.15,10.94,5.82,19.5,7.95c2.79,0.69,4.5,3.52,3.8,6.32
			C43.07,116.7,40.95,118.29,38.61,118.29z M10.84,89.45c-0.71,0-1.42-0.14-2.11-0.45c-2.63-1.17-3.82-4.25-2.66-6.88
			c3.68-8.31,11.57-14.86,17.54-18.89c2.39-1.61,5.63-0.98,7.24,1.41c1.61,2.39,0.98,5.63-1.41,7.24
			c-6.84,4.61-11.75,9.75-13.84,14.47C14.75,88.29,12.84,89.45,10.84,89.45z M47.35,62.74c-2.21,0-4.26-1.41-4.97-3.63
			c-0.87-2.74,0.64-5.68,3.38-6.55c2.41-0.77,4.81-1.41,7.16-1.92c5.82-1.26,10.24-2.94,13.14-4.99c2.35-1.67,5.6-1.11,7.27,1.24
			c1.67,2.35,1.11,5.6-1.24,7.27c-4.05,2.88-9.77,5.12-16.98,6.68c-2.02,0.44-4.11,1-6.2,1.66C48.4,62.66,47.87,62.74,47.35,62.74z
			 M69.83,35.23c-1.46,0-2.91-0.61-3.94-1.8c-3.64-4.21-9.72-8.49-17.1-12.06c-2.59-1.25-3.68-4.37-2.42-6.96s4.37-3.68,6.96-2.42
			c8.76,4.24,15.83,9.29,20.44,14.62c1.89,2.18,1.65,5.47-0.53,7.35C72.25,34.81,71.03,35.23,69.83,35.23z M29.2,14.3
			c-0.39,0-0.78-0.04-1.17-0.13c-7.33-1.68-14.67-2.53-21.81-2.53c-2.88,0-5.21-2.33-5.21-5.21s2.33-5.21,5.21-5.21
			c7.92,0,16.05,0.94,24.14,2.8c2.81,0.64,4.56,3.44,3.92,6.25C33.72,12.66,31.58,14.3,29.2,14.3z"/>
	</g>
	<g>
		<path class="st1" d="M142.23,151.36c-19.58-0.21-32.34-0.28-38.28-0.21l0.05-20.79l-3.86-7l3.89-6.44l0.24-109.56
			c17.41-1.26,31.46-1.26,42.16,0c10.7,1.26,19.73,4.18,27.11,8.76c7.38,4.58,11.59,11.94,12.64,22.08
			c0.56,10.56-0.68,18.09-3.72,22.6c-3.04,4.51-6.9,8.06-11.59,10.64c-4.68,2.59-11.01,4-18.98,4.25
			c-7.97,0.24-13.11,0.3-15.42,0.16c0,0.14,3.04,0.4,9.12,0.79c6.08,0.38,13.74,1.77,22.97,4.14c9.23,2.38,16.5,6.78,21.81,13.21
			c6.99,11.12,9.37,23.46,7.13,37.02l-19.33-3.49c0.79-1.62,1.35-3.44,1.66-5.47c1.08-7.03,0.94-12.55-0.42-16.57
			c-1.36-4.02-3.9-7.72-7.6-11.12c-3.71-3.39-9.44-6.34-17.2-8.86c-11.05-3.08-24.02-4.3-38.91-3.67l4.21,2.16l0.99,51.7l-5.2-2.58
			v4.71c8.35,0.7,15.63,1.12,21.87,1.26L142.23,151.36z M115.8,68.93c3.36,0.14,6.9,0.24,10.65,0.31c3.74,0.07,9.45,0.09,17.15,0.05
			c7.69-0.03,13.41-1.01,17.15-2.94c3.74-1.92,7.3-4.88,10.7-8.86c3.39-3.99,4.4-9.54,3.04-16.68s-5.33-11.94-11.9-14.42
			c-6.57-2.48-13.06-4.11-19.45-4.88c-6.4-0.77-15.47-0.7-27.22,0.21L115.8,68.93z"/>
		<path class="st1" d="M224.72,52.56c4.65,0,7.43-0.21,8.34-0.63c-0.7,12.73-1.1,23.34-1.21,31.83c-0.11,8.49,0.05,16.97,0.47,25.43
			c0.42,8.46,1.36,14.79,2.83,18.98c1.47,4.27,4.79,6.7,9.96,7.29c5.17,0.59,10.59,0.77,16.26,0.52c5.66-0.24,12.15-2.08,19.45-5.51
			c7.3-3.43,11.13-9.14,11.48-17.15c0.35-8.01,0.42-16.66,0.21-25.96c-0.21-9.3-0.56-21.43-1.05-36.39
			c1.61,0.84,5.24,1.26,10.91,1.26c5.66,0,9.09-0.84,10.28-2.52l3.36,100.79c-3.15-0.21-5.66-0.42-7.55-0.63
			c-1.89-0.21-4.34-0.42-7.34-0.63c-0.7-13.49-0.98-20.24-0.84-20.24c-4.4,11.68-10.43,18.18-18.09,19.51
			c-7.66,1.33-17.3,2.1-28.94,2.31c-11.64,0.21-19.94-1.22-24.91-4.3c-5.59-2.52-9.54-8.65-11.85-18.4
			c-2.31-9.75-3.72-20.29-4.25-31.62c-0.52-11.33-0.33-26.18,0.58-44.57C216.1,52.35,220.06,52.56,224.72,52.56z"/>
		<path class="st1" d="M347.26,49.73c0,9.37,0,15.49,0,18.35c5.17-3.36,10.84-6.22,16.99-8.6c6.15-2.38,12.17-3.78,18.04-4.2
			c5.87-0.42,11.36-0.1,16.47,0.94c5.1,1.05,9.51,2.41,13.21,4.09c3.63,1.75,6.45,7.41,8.44,16.99c1.99,9.58,3.46,19.77,4.4,30.57
			c0.94,10.8,1.84,25.22,2.67,43.26l-20.87,0.31c0-19.65-1.22-40.31-3.67-61.98c-1.26-10.77-4.89-17.09-10.91-18.98
			c-6.01-1.89-12.38-1.8-19.09,0.26c-6.71,2.06-15.38,6.55-26.01,13.48l-1.89,66.91l-7.13,0.31h-14.05
			c1.33-5.94,2.03-11.47,2.1-16.57c0.14-10.28,0.05-21.99-0.26-35.13c-0.32-13.14-0.4-29.71-0.26-49.71
			C331.6,51.1,338.87,50.99,347.26,49.73z"/>
		<path class="st1" d="M549.77,60.95c1.89-2.45,10.15-5.96,24.8-10.54c14.65-4.58,27.63-3.18,38.96,4.2
			c11.33,7.38,17.65,20.68,18.98,39.9c0.28,23.28,1.75,42.47,4.41,57.58c-3.22,0.07-8.01-0.03-14.37-0.31
			c0.42,1.12-0.49-3.36-2.73-13.42c-15.59,7.62-27.48,11.94-35.66,12.95c-8.18,1.01-16.34,0.7-24.49-0.94
			c-8.15-1.64-12.29-8.86-12.43-21.66c3.29-14.33,9.49-24.56,18.62-30.68c9.12-6.12,19.26-9.16,30.41-9.12
			c11.15,0.04,18.26,0.79,21.34,2.26c-1.61-12.24-6.22-20.71-13.84-25.43c-7.62-4.72-16.82-4.68-27.58,0.1
			c-10.77,4.79-19.26,9.28-25.49,13.48L549.77,60.95z M618.89,105.42c-5.45-0.91-13.15-1.54-23.07-1.89
			c-9.93-0.35-18.49,3.55-25.69,11.69c-7.2,8.15-8.57,15.01-4.09,20.61c4.47,5.59,22.48,1.15,54.01-13.32
			C619.48,118.88,619.1,113.18,618.89,105.42z"/>
		<path class="st2" d="M731,1c0,10.07,0.09,43.69,0.26,61.69c0.17,18-0.3,33.18-1.42,45.52c-1.12,12.34-4.65,22.15-10.59,29.42
			c-5.94,7.27-15.1,11.33-27.48,12.17c-11.61,0.56-20.57-1-26.9-4.67c-6.33-3.67-10.84-7.95-13.53-12.85
			c-2.69-4.89-3.79-11.78-3.3-20.66c2.1,1.26,4.28,1.98,6.55,2.15c2.27,0.18,4.63,0.16,7.08-0.05c0.56,18.88,9.33,27.11,26.32,24.7
			c16.99-2.41,25.96-15.71,26.9-39.9c0.94-24.19-0.1-42.83-1.89-56.11c-2.89-21.4-4.49-39.93-6.87-40.98L731,1z"/>
		<path class="st2" d="M817.52,137.72c-9.37,8.39-19.16,12.52-29.36,12.38c-12.86-0.21-23.56-4.7-32.09-13.48
			c-8.53-8.77-13.07-25.85-13.63-51.23c0.14-14.82,2.13-26.65,5.98-35.5c3.84-8.84,8.74-15.61,14.68-20.29
			c5.94-4.68,12.22-7.59,18.82-8.71c6.61-1.12,13.41-0.8,20.4,0.95c7.76,2.59,14.11,7.95,19.03,16.1
			c4.93,8.15,7.66,14.54,8.18,19.19c0.52,4.65,1.31,14.53,2.36,29.63C831.68,112.34,826.89,129.33,817.52,137.72z M812.54,45.12
			c-0.94-2.73-2.85-5.75-5.72-9.07c-2.87-3.32-6.33-5.72-10.38-7.18c-3.92-0.35-7.38-0.35-10.38,0c-3.01,0.35-6.97,2.54-11.9,6.55
			c-4.93,4.02-8.79,10.61-11.59,19.77c-2.8,9.16-3.99,20.85-3.57,35.08c0.42,14.23,2.52,26.45,6.29,36.65s11.54,15.26,23.28,15.15
			c11.75-0.1,19.44-4.91,23.07-14.42c3.63-9.51,5.68-21.39,6.14-35.66c0.45-14.26-0.33-26.5-2.36-36.71
			C814.44,51.24,813.48,47.85,812.54,45.12z"/>
	</g>
	<g>
		<path class="st1" d="M956.69,125.2c-0.17,0.15,1.05,2.77,3.67,7.86c2.61,5.09,3.92,7.61,3.93,7.56
			c5.76-8.59,9.08-13.66,9.97-15.23c-0.63-0.58-1.07-0.96-1.33-1.14c4.71,0.33,8.36,0.58,10.94,0.76l-2.7,0.73l-13.89,20.3
			l17.4,25.49l1.7,0.92l-10.82-0.75l1.29-0.59c-4.49-8.55-8.74-15.51-12.75-20.87c-8.95,12.43-13.42,18.62-13.41,18.57
			c-0.41,0.13-0.09,0.46,0.97,0.99c-2.64-0.1-4.29-0.18-4.94-0.22s-2.42-0.17-5.29-0.37c0.21,0.01,0.92-0.35,2.12-1.1
			c10.06-13.1,15.77-20.88,17.11-23.32c-6.78-12.86-10.48-19.43-11.1-19.71c-0.36-0.59-0.89-1.24-1.59-1.96l10.01,0.82
			C957.43,124.53,957,124.95,956.69,125.2z"/>
	</g>
</g>
</svg>
